<?xml version="1.0" standalone="no"?>
<!DOCTYPE svg PUBLIC "-//W3C//DTD SVG 20010904//EN"
 "http://www.w3.org/TR/2001/REC-SVG-20010904/DTD/svg10.dtd">
<svg version="1.0" xmlns="http://www.w3.org/2000/svg"
 width="225.000000pt" height="225.000000pt" viewBox="0 0 225.000000 225.000000"
 preserveAspectRatio="xMidYMid meet">

<g transform="translate(0.000000,225.000000) scale(0.100000,-0.100000)"
fill="#000000" stroke="none">
<path d="M1074 1586 c-93 -30 -178 -118 -203 -211 -37 -138 22 -286 143 -355
66 -39 76 -38 76 5 0 32 -2 35 -30 35 -30 0 -36 5 -99 77 -10 12 -17 24 -14
27 9 8 46 -15 66 -41 25 -31 74 -32 86 0 8 19 4 24 -30 35 -78 27 -118 118
-85 196 9 21 16 56 16 77 0 33 3 39 20 39 12 0 33 -6 48 -13 34 -16 186 -13
229 4 39 16 47 10 48 -39 0 -20 6 -47 13 -59 16 -29 15 -96 -3 -139 -11 -27
-26 -40 -63 -56 l-49 -21 5 -76 c2 -42 6 -78 8 -79 1 -2 20 2 41 9 57 18 146
112 167 177 52 155 -12 321 -150 388 -67 32 -175 42 -240 20z"/>
<path d="M501 891 c-26 -26 -36 -81 -22 -124 14 -42 55 -62 106 -53 l36 7 -3
52 c-3 51 -4 52 -35 55 -28 3 -33 0 -33 -17 0 -12 7 -21 15 -21 8 0 15 -9 15
-21 0 -16 -5 -20 -27 -17 -21 2 -29 10 -37 36 -14 50 4 80 51 84 55 4 52 32
-4 36 -31 2 -47 -2 -62 -17z"/>
<path d="M1288 904 c-12 -11 -10 -182 2 -189 6 -4 10 10 10 34 0 40 1 41 34
41 19 0 42 7 50 16 20 19 21 68 1 84 -17 14 -87 25 -97 14z m92 -34 c17 -32
-4 -60 -45 -60 -34 0 -35 1 -35 40 0 39 1 40 35 40 24 0 37 -6 45 -20z"/>
<path d="M647 893 c-14 -13 -6 -33 13 -33 13 0 20 7 20 20 0 19 -20 27 -33 13z"/>
<path d="M802 808 c3 -78 6 -93 20 -96 13 -3 17 6 20 40 3 39 6 43 31 46 26 3
27 2 27 -42 0 -39 3 -46 20 -46 19 0 20 7 20 95 0 88 -1 95 -20 95 -16 0 -20
-7 -20 -36 0 -33 -2 -35 -27 -32 -23 2 -29 8 -31 36 -3 24 -8 32 -23 32 -18 0
-20 -6 -17 -92z"/>
<path d="M1102 808 l3 -92 44 -3 c58 -4 71 9 71 68 0 53 -22 76 -60 64 -17 -5
-20 -2 -20 24 0 25 -4 31 -20 31 -20 0 -21 -5 -18 -92z m88 -28 c0 -16 -28
-42 -38 -36 -16 10 -15 63 1 69 11 4 37 -19 37 -33z"/>
<path d="M720 868 c0 -6 -7 -19 -15 -28 -14 -15 -14 -18 0 -30 8 -7 15 -29 15
-50 0 -25 5 -40 16 -44 41 -16 58 2 29 30 -8 9 -15 26 -15 40 0 15 6 24 15 24
8 0 15 6 15 14 0 8 -7 16 -15 20 -8 3 -15 12 -15 21 0 8 -7 15 -15 15 -8 0
-15 -5 -15 -12z"/>
<path d="M642 778 c2 -48 7 -63 18 -63 11 0 16 15 18 63 3 57 1 62 -18 62 -19
0 -21 -5 -18 -62z"/>
<path d="M960 791 c0 -64 17 -82 73 -77 l42 4 3 61 c3 55 1 61 -17 61 -17 0
-20 -8 -23 -47 -2 -35 -7 -48 -18 -48 -11 0 -16 13 -18 48 -3 39 -6 47 -23 47
-16 0 -19 -7 -19 -49z"/>
<path d="M1430 832 c0 -4 15 -7 32 -7 23 0 34 -5 36 -17 3 -14 -3 -18 -25 -18
-33 0 -53 -16 -53 -42 0 -24 32 -39 69 -32 28 6 31 10 31 46 0 58 -14 78 -55
78 -19 0 -35 -3 -35 -8z m68 -74 c-4 -31 -58 -40 -58 -10 0 25 8 32 37 32 20
0 24 -5 21 -22z"/>
<path d="M1544 815 c-3 -14 -3 -33 1 -42 10 -22 8 -41 -7 -70 -16 -32 5 -53
53 -53 41 0 74 24 65 47 -3 8 -6 16 -6 19 0 2 -18 7 -40 10 -43 7 -55 24 -16
24 29 0 42 15 48 58 l5 32 -49 0 c-42 0 -48 -3 -54 -25z m74 -16 c3 -28 -16
-43 -43 -33 -15 6 -21 45 -8 58 16 16 48 1 51 -25z m18 -101 c8 -13 -22 -38
-45 -38 -26 0 -44 17 -38 34 7 19 72 22 83 4z"/>
<path d="M1681 826 c-7 -8 -11 -34 -9 -58 3 -36 7 -44 29 -52 15 -5 35 -5 45
-1 16 8 14 9 -11 13 -66 9 -74 42 -10 42 48 0 56 11 35 51 -13 23 -62 26 -79
5z m67 -23 c3 -19 -1 -23 -26 -23 -36 0 -44 8 -31 32 14 26 53 20 57 -9z"/>
<path d="M1794 825 c-10 -25 4 -45 36 -51 21 -5 30 -12 30 -25 0 -15 -7 -19
-36 -19 -21 0 -33 -4 -29 -10 9 -15 61 -12 75 5 19 23 7 49 -28 60 -40 12 -40
40 1 40 15 -1 27 3 27 7 0 15 -70 9 -76 -7z"/>
</g>
</svg>
